<svg width="132" height="58" viewBox="0 0 132 58" fill="none" xmlns="http://www.w3.org/2000/svg">
<path fill-rule="evenodd" clip-rule="evenodd" d="M0 11.7619V2L8.0952 6.76188L0 11.7619ZM0 22V12.2381L8.0952 17.2381L0 22ZM3.33301 11.9999L9.99964 7.71417L17.1425 11.9999L9.99964 16.2856L3.33301 11.9999Z" fill="#FFC400"/>
<path fill-rule="evenodd" clip-rule="evenodd" d="M0 11.7619V2L8.0952 6.76188L0 11.7619ZM0 22V12.2381L8.0952 17.2381L0 22ZM3.33301 11.9999L9.99964 7.71417L17.1425 11.9999L9.99964 16.2856L3.33301 11.9999Z" fill="url(#paint0_linear_2265_31349)"/>
<path d="M6.18 50.16C5.11333 50.16 4.09333 50 3.12 49.68C2.14667 49.3467 1.38 48.92 0.82 48.4L1.56 46.84C2.09333 47.3067 2.77333 47.6933 3.6 48C4.42667 48.3067 5.28667 48.46 6.18 48.46C6.99333 48.46 7.65333 48.3667 8.16 48.18C8.66667 47.9933 9.04 47.74 9.28 47.42C9.52 47.0867 9.64 46.7133 9.64 46.3C9.64 45.82 9.48 45.4333 9.16 45.14C8.85333 44.8467 8.44667 44.6133 7.94 44.44C7.44667 44.2533 6.9 44.0933 6.3 43.96C5.7 43.8267 5.09333 43.6733 4.48 43.5C3.88 43.3133 3.32667 43.08 2.82 42.8C2.32667 42.52 1.92667 42.1467 1.62 41.68C1.31333 41.2 1.16 40.5867 1.16 39.84C1.16 39.12 1.34667 38.46 1.72 37.86C2.10667 37.2467 2.69333 36.76 3.48 36.4C4.28 36.0267 5.29333 35.84 6.52 35.84C7.33333 35.84 8.14 35.9467 8.94 36.16C9.74 36.3733 10.4333 36.68 11.02 37.08L10.36 38.68C9.76 38.28 9.12667 37.9933 8.46 37.82C7.79333 37.6333 7.14667 37.54 6.52 37.54C5.73333 37.54 5.08667 37.64 4.58 37.84C4.07333 38.04 3.7 38.3067 3.46 38.64C3.23333 38.9733 3.12 39.3467 3.12 39.76C3.12 40.2533 3.27333 40.6467 3.58 40.94C3.9 41.2333 4.30667 41.4667 4.8 41.64C5.30667 41.8133 5.86 41.9733 6.46 42.12C7.06 42.2533 7.66 42.4067 8.26 42.58C8.87333 42.7533 9.42667 42.98 9.92 43.26C10.4267 43.54 10.8333 43.9133 11.14 44.38C11.4467 44.8467 11.6 45.4467 11.6 46.18C11.6 46.8867 11.4067 47.5467 11.02 48.16C10.6333 48.76 10.0333 49.2467 9.22 49.62C8.42 49.98 7.40667 50.16 6.18 50.16ZM20.7019 39.3C21.5685 39.3 22.3285 39.4667 22.9819 39.8C23.6485 40.1333 24.1685 40.64 24.5419 41.32C24.9152 42 25.1019 42.86 25.1019 43.9V50H23.1819V44.12C23.1819 43.0933 22.9285 42.32 22.4219 41.8C21.9285 41.28 21.2285 41.02 20.3219 41.02C19.6419 41.02 19.0485 41.1533 18.5419 41.42C18.0352 41.6867 17.6419 42.08 17.3619 42.6C17.0952 43.12 16.9619 43.7667 16.9619 44.54V50H15.0419V35.16H16.9619V42.26L16.5819 41.5C16.9285 40.8067 17.4619 40.2667 18.1819 39.88C18.9019 39.4933 19.7419 39.3 20.7019 39.3ZM33.9952 50.12C32.9285 50.12 31.9818 49.8867 31.1552 49.42C30.3285 48.9533 29.6752 48.3133 29.1952 47.5C28.7152 46.6733 28.4752 45.74 28.4752 44.7C28.4752 43.6467 28.7152 42.7133 29.1952 41.9C29.6752 41.0867 30.3285 40.4533 31.1552 40C31.9818 39.5333 32.9285 39.3 33.9952 39.3C35.0485 39.3 35.9885 39.5333 36.8152 40C37.6552 40.4533 38.3085 41.0867 38.7752 41.9C39.2552 42.7 39.4952 43.6333 39.4952 44.7C39.4952 45.7533 39.2552 46.6867 38.7752 47.5C38.3085 48.3133 37.6552 48.9533 36.8152 49.42C35.9885 49.8867 35.0485 50.12 33.9952 50.12ZM33.9952 48.44C34.6752 48.44 35.2818 48.2867 35.8152 47.98C36.3618 47.6733 36.7885 47.24 37.0952 46.68C37.4018 46.1067 37.5552 45.4467 37.5552 44.7C37.5552 43.94 37.4018 43.2867 37.0952 42.74C36.7885 42.18 36.3618 41.7467 35.8152 41.44C35.2818 41.1333 34.6752 40.98 33.9952 40.98C33.3152 40.98 32.7085 41.1333 32.1752 41.44C31.6418 41.7467 31.2152 42.18 30.8952 42.74C30.5752 43.2867 30.4152 43.94 30.4152 44.7C30.4152 45.4467 30.5752 46.1067 30.8952 46.68C31.2152 47.24 31.6418 47.6733 32.1752 47.98C32.7085 48.2867 33.3152 48.44 33.9952 48.44ZM42.9505 50V39.4H44.7905V42.28L44.6105 41.56C44.9038 40.8267 45.3971 40.2667 46.0905 39.88C46.7838 39.4933 47.6371 39.3 48.6505 39.3V41.16C48.5705 41.1467 48.4905 41.14 48.4105 41.14C48.3438 41.14 48.2771 41.14 48.2105 41.14C47.1838 41.14 46.3705 41.4467 45.7705 42.06C45.1705 42.6733 44.8705 43.56 44.8705 44.72V50H42.9505ZM55.8866 50.12C54.8199 50.12 53.9932 49.8333 53.4066 49.26C52.8199 48.6867 52.5266 47.8667 52.5266 46.8V37.08H54.4466V46.72C54.4466 47.2933 54.5866 47.7333 54.8666 48.04C55.1599 48.3467 55.5732 48.5 56.1066 48.5C56.7066 48.5 57.2066 48.3333 57.6066 48L58.2066 49.38C57.9132 49.6333 57.5599 49.82 57.1466 49.94C56.7466 50.06 56.3266 50.12 55.8866 50.12ZM50.7266 40.98V39.4H57.4866V40.98H50.7266ZM61.6078 50V36H67.5078C69.0011 36 70.3145 36.2933 71.4478 36.88C72.5945 37.4667 73.4811 38.2867 74.1078 39.34C74.7478 40.3933 75.0678 41.6133 75.0678 43C75.0678 44.3867 74.7478 45.6067 74.1078 46.66C73.4811 47.7133 72.5945 48.5333 71.4478 49.12C70.3145 49.7067 69.0011 50 67.5078 50H61.6078ZM63.6078 48.26H67.3878C68.5478 48.26 69.5478 48.04 70.3878 47.6C71.2411 47.16 71.9011 46.5467 72.3678 45.76C72.8345 44.96 73.0678 44.04 73.0678 43C73.0678 41.9467 72.8345 41.0267 72.3678 40.24C71.9011 39.4533 71.2411 38.84 70.3878 38.4C69.5478 37.96 68.5478 37.74 67.3878 37.74H63.6078V48.26ZM78.6513 50V39.4H80.4913V42.28L80.3113 41.56C80.6046 40.8267 81.0979 40.2667 81.7913 39.88C82.4846 39.4933 83.3379 39.3 84.3513 39.3V41.16C84.2713 41.1467 84.1913 41.14 84.1113 41.14C84.0446 41.14 83.9779 41.14 83.9113 41.14C82.8846 41.14 82.0713 41.4467 81.4713 42.06C80.8713 42.6733 80.5713 43.56 80.5713 44.72V50H78.6513ZM93.3164 50V47.76L93.2164 47.34V43.52C93.2164 42.7067 92.9764 42.08 92.4964 41.64C92.0297 41.1867 91.3231 40.96 90.3764 40.96C89.7497 40.96 89.1364 41.0667 88.5364 41.28C87.9364 41.48 87.4297 41.7533 87.0164 42.1L86.2164 40.66C86.7631 40.22 87.4164 39.8867 88.1764 39.66C88.9497 39.42 89.7564 39.3 90.5964 39.3C92.0497 39.3 93.1697 39.6533 93.9564 40.36C94.7431 41.0667 95.1364 42.1467 95.1364 43.6V50H93.3164ZM89.8364 50.12C89.0497 50.12 88.3564 49.9867 87.7564 49.72C87.1697 49.4533 86.7164 49.0867 86.3964 48.62C86.0764 48.14 85.9164 47.6 85.9164 47C85.9164 46.4267 86.0497 45.9067 86.3164 45.44C86.5964 44.9733 87.0431 44.6 87.6564 44.32C88.2831 44.04 89.1231 43.9 90.1764 43.9H93.5364V45.28H90.2564C89.2964 45.28 88.6497 45.44 88.3164 45.76C87.9831 46.08 87.8164 46.4667 87.8164 46.92C87.8164 47.44 88.0231 47.86 88.4364 48.18C88.8497 48.4867 89.4231 48.64 90.1564 48.64C90.8764 48.64 91.5031 48.48 92.0364 48.16C92.5831 47.84 92.9764 47.3733 93.2164 46.76L93.5964 48.08C93.3431 48.7067 92.8964 49.2067 92.2564 49.58C91.6164 49.94 90.8097 50.12 89.8364 50.12ZM112.75 39.3C113.603 39.3 114.356 39.4667 115.01 39.8C115.663 40.1333 116.17 40.64 116.53 41.32C116.903 42 117.09 42.86 117.09 43.9V50H115.17V44.12C115.17 43.0933 114.93 42.32 114.45 41.8C113.97 41.28 113.296 41.02 112.43 41.02C111.79 41.02 111.23 41.1533 110.75 41.42C110.27 41.6867 109.896 42.08 109.63 42.6C109.376 43.12 109.25 43.7667 109.25 44.54V50H107.33V44.12C107.33 43.0933 107.09 42.32 106.61 41.8C106.143 41.28 105.47 41.02 104.59 41.02C103.963 41.02 103.41 41.1533 102.93 41.42C102.45 41.6867 102.076 42.08 101.81 42.6C101.543 43.12 101.41 43.7667 101.41 44.54V50H99.4895V39.4H101.33V42.22L101.03 41.5C101.363 40.8067 101.876 40.2667 102.57 39.88C103.263 39.4933 104.07 39.3 104.99 39.3C106.003 39.3 106.876 39.5533 107.61 40.06C108.343 40.5533 108.823 41.3067 109.05 42.32L108.27 42C108.59 41.1867 109.15 40.5333 109.95 40.04C110.75 39.5467 111.683 39.3 112.75 39.3ZM128.002 50V47.76L127.902 47.34V43.52C127.902 42.7067 127.662 42.08 127.182 41.64C126.716 41.1867 126.009 40.96 125.062 40.96C124.436 40.96 123.822 41.0667 123.222 41.28C122.622 41.48 122.116 41.7533 121.702 42.1L120.902 40.66C121.449 40.22 122.102 39.8867 122.862 39.66C123.636 39.42 124.442 39.3 125.282 39.3C126.736 39.3 127.856 39.6533 128.642 40.36C129.429 41.0667 129.822 42.1467 129.822 43.6V50H128.002ZM124.522 50.12C123.736 50.12 123.042 49.9867 122.442 49.72C121.856 49.4533 121.402 49.0867 121.082 48.62C120.762 48.14 120.602 47.6 120.602 47C120.602 46.4267 120.736 45.9067 121.002 45.44C121.282 44.9733 121.729 44.6 122.342 44.32C122.969 44.04 123.809 43.9 124.862 43.9H128.222V45.28H124.942C123.982 45.28 123.336 45.44 123.002 45.76C122.669 46.08 122.502 46.4667 122.502 46.92C122.502 47.44 122.709 47.86 123.122 48.18C123.536 48.4867 124.109 48.64 124.842 48.64C125.562 48.64 126.189 48.48 126.722 48.16C127.269 47.84 127.662 47.3733 127.902 46.76L128.282 48.08C128.029 48.7067 127.582 49.2067 126.942 49.58C126.302 49.94 125.496 50.12 124.522 50.12Z" fill="white"/>
<defs>
<linearGradient id="paint0_linear_2265_31349" x1="8.57123" y1="2" x2="8.57123" y2="22" gradientUnits="userSpaceOnUse">
<stop stop-color="#FF0080"/>
<stop offset="1" stop-color="#FFBB01"/>
</linearGradient>
</defs>
</svg>
